<?xml version="1.0" standalone="no"?>
<!DOCTYPE svg PUBLIC "-//W3C//DTD SVG 20010904//EN"
 "http://www.w3.org/TR/2001/REC-SVG-20010904/DTD/svg10.dtd">
<svg version="1.0" xmlns="http://www.w3.org/2000/svg"
 width="361.000000pt" height="361.000000pt" viewBox="0 0 361.000000 361.000000"
 preserveAspectRatio="xMidYMid meet">

<g transform="translate(0.000000,361.000000) scale(0.100000,-0.100000)"
fill="#000000" stroke="none">
<path d="M365 3564 c-136 -19 -212 -39 -307 -81 l-58 -26 0 -453 0 -454 178 0
179 0 6 193 c7 211 15 253 56 299 54 61 170 47 207 -25 19 -35 32 -186 33
-364 l1 -103 375 0 375 0 0 58 c-1 97 -28 339 -50 429 -26 109 -69 191 -144
270 -156 167 -369 249 -671 257 -82 3 -163 3 -180 0z"/>
<path d="M1742 3500 c-12 -5 -27 -21 -32 -35 -6 -16 -10 -203 -10 -471 l0
-444 374 0 374 0 3 165 c5 225 -15 209 265 215 199 5 217 7 230 24 11 16 14
69 14 266 0 238 -1 248 -21 266 -20 18 -46 19 -598 21 -333 1 -586 -2 -599 -7z"/>
<path d="M3292 3500 c-12 -5 -27 -21 -32 -35 -6 -16 -10 -203 -10 -471 l0
-444 180 0 180 0 0 480 0 480 -147 -1 c-82 0 -158 -4 -171 -9z"/>
<path d="M1155 2526 c-112 -27 -180 -78 -226 -167 -32 -64 -41 -194 -36 -514
5 -296 13 -360 50 -431 26 -49 96 -103 157 -121 l55 -17 -3 -88 -4 -88 41 0
c25 0 41 5 41 12 0 9 3 9 12 0 17 -17 55 -15 66 4 8 14 10 14 21 0 16 -19 52
-21 69 -4 7 7 12 33 12 58 0 25 -5 51 -12 58 -19 19 -54 14 -71 -10 -13 -19
-16 -20 -16 -6 -1 22 -46 34 -66 18 -9 -8 -15 -30 -15 -56 0 -34 -3 -42 -15
-38 -17 7 -21 34 -5 34 6 0 10 7 10 15 0 8 -4 15 -10 15 -5 0 -10 7 -10 15 0
8 5 15 10 15 6 0 10 8 10 18 0 14 11 17 70 19 144 3 284 83 324 184 17 42 36
186 36 277 l0 52 -158 0 -159 0 -7 -137 c-4 -75 -12 -143 -18 -150 -15 -18
-63 -16 -79 3 -16 19 -26 524 -14 699 7 112 17 135 59 135 41 0 47 -20 53
-189 l6 -161 160 0 160 0 -6 143 c-10 219 -36 283 -140 354 -82 56 -237 77
-352 49z m146 -1343 c14 4 19 0 19 -13 0 -13 -5 -17 -19 -13 -13 3 -21 -1 -24
-14 -3 -10 -5 2 -5 27 0 25 2 37 5 27 3 -13 11 -17 24 -14z m66 -35 c-2 -13
-4 -3 -4 22 0 25 2 35 4 23 2 -13 2 -33 0 -45z"/>
<path d="M205 2478 c-7 -45 -155 -1163 -155 -1177 0 -8 52 -11 164 -11 l164 0
7 68 c3 37 8 86 11 110 l5 42 53 0 53 0 6 -67 c4 -38 7 -87 7 -110 l0 -43 165
0 c118 0 165 3 165 12 0 14 -169 1155 -175 1186 l-5 22 -230 0 -229 0 -6 -32z
m298 -265 c18 -9 39 -16 48 -15 21 4 89 -72 89 -100 0 -12 9 -31 20 -43 17
-18 18 -25 8 -52 -10 -26 -8 -42 7 -92 10 -34 16 -63 14 -65 -2 -2 -74 -24
-159 -50 -85 -25 -176 -52 -202 -60 l-48 -15 -39 125 -40 125 17 45 c15 41 26
51 114 105 54 33 98 66 98 72 0 15 20 37 32 37 5 0 23 -8 41 -17z"/>
<path d="M1760 1900 l0 -610 275 0 275 0 0 125 0 125 -115 0 -115 0 0 130 0
129 98 3 97 3 0 115 0 115 -97 3 -98 3 0 109 0 109 103 3 102 3 3 123 3 122
-266 0 -265 0 0 -610z"/>
<path d="M2400 1900 l0 -610 275 0 275 0 0 125 0 125 -115 0 -115 0 0 130 0
129 98 3 97 3 0 115 0 115 -97 3 -98 3 0 109 0 109 103 3 102 3 3 123 3 122
-266 0 -265 0 0 -610z"/>
<path d="M3040 1900 l0 -610 160 0 160 0 0 255 0 255 95 0 95 0 0 120 0 120
-95 0 -95 0 0 110 0 109 108 3 107 3 3 123 3 122 -271 0 -270 0 0 -610z"/>
<path d="M46 1213 c-4 -32 -9 -70 -12 -85 -5 -25 -3 -28 19 -28 16 0 27 7 30
18 4 16 5 16 6 0 1 -21 37 -25 44 -5 4 10 6 10 6 0 1 -8 16 -13 41 -13 l40 0
0 85 c0 78 -2 85 -20 85 -11 0 -20 -7 -20 -15 0 -8 -9 -15 -20 -15 -12 0 -21
-8 -24 -22 -3 -13 -7 -32 -9 -43 -3 -11 -5 -4 -6 15 -2 63 -11 80 -41 80 -26
0 -28 -3 -34 -57z m131 -65 c-2 -13 -4 -3 -4 22 0 25 2 35 4 23 2 -13 2 -33 0
-45z"/>
<path d="M602 1258 c-12 -12 -17 -114 -6 -142 7 -19 55 -21 72 -4 7 7 12 22
12 35 0 31 -37 32 -43 1 -2 -13 -4 4 -4 37 0 33 2 48 4 33 6 -40 43 -39 43 0
0 33 -16 52 -45 52 -12 0 -26 -5 -33 -12z"/>
<path d="M1750 1185 c0 -78 2 -85 20 -85 18 0 20 7 20 85 0 78 -2 85 -20 85
-18 0 -20 -7 -20 -85z"/>
<path d="M1930 1185 l0 -85 34 0 c19 0 37 6 39 13 4 10 6 10 6 0 1 -8 16 -13
41 -13 l40 0 0 85 c0 78 -2 85 -20 85 -11 0 -20 -7 -20 -15 0 -8 -9 -15 -19
-15 -23 0 -31 -19 -31 -71 0 -30 -3 -37 -15 -33 -17 7 -21 34 -5 34 6 0 10 7
10 15 0 8 -4 15 -10 15 -16 0 -12 22 7 35 22 16 8 35 -28 35 l-29 0 0 -85z
m117 -37 c-2 -13 -4 -3 -4 22 0 25 2 35 4 23 2 -13 2 -33 0 -45z"/>
<path d="M2440 1248 c0 -21 -1 -21 -14 -3 -8 11 -19 16 -30 12 -12 -5 -16 -20
-16 -66 0 -84 4 -91 56 -91 l44 0 0 85 c0 78 -2 85 -20 85 -14 0 -20 -7 -20
-22z m-3 -105 c-2 -16 -4 -5 -4 22 0 28 2 40 4 28 2 -13 2 -35 0 -50z"/>
<path d="M2720 1185 c0 -78 2 -85 20 -85 16 0 20 7 20 35 0 19 5 35 10 35 6 0
10 7 10 15 0 8 -4 15 -10 15 -5 0 -10 7 -10 15 0 8 5 15 10 15 6 0 10 9 10 20
0 16 -7 20 -30 20 l-30 0 0 -85z"/>
<path d="M3123 1257 c-4 -8 -16 -16 -26 -20 -15 -6 -17 -17 -15 -69 l3 -63 38
-3 37 -3 0 85 c0 69 -3 86 -15 86 -7 0 -18 -6 -22 -13z"/>
<path d="M3328 1264 c-4 -3 -4 -12 -1 -20 3 -8 1 -14 -5 -14 -5 0 -12 7 -16
15 -8 21 -33 19 -38 -2 -2 -10 -2 -45 1 -78 l6 -60 48 -3 c40 -3 47 0 47 15 1
17 1 17 11 1 12 -21 49 -24 67 -6 7 7 12 33 12 58 0 25 -5 51 -12 58 -18 18
-55 15 -67 -5 -11 -19 -12 -16 -15 27 -1 15 -27 25 -38 14z m-11 -116 c-2 -13
-4 -3 -4 22 0 25 2 35 4 23 2 -13 2 -33 0 -45z m100 0 c-2 -13 -4 -3 -4 22 0
25 2 35 4 23 2 -13 2 -33 0 -45z"/>
<path d="M980 1246 c0 -10 -12 -12 -50 -8 l-50 5 0 -72 c0 -64 2 -71 20 -71
16 0 20 8 23 58 l3 57 2 -57 c2 -51 5 -58 22 -58 17 0 20 7 22 58 l1 57 6 -55
c5 -47 9 -55 28 -58 21 -3 21 -1 16 52 -4 35 -2 56 4 56 13 0 24 -78 16 -108
-4 -18 -1 -22 20 -22 33 0 43 19 50 98 6 57 5 62 -13 62 -14 0 -20 -9 -23 -32
l-4 -33 -1 33 c-2 27 -6 32 -27 32 -14 0 -25 5 -25 10 0 6 -9 10 -20 10 -11 0
-20 -6 -20 -14z"/>
<path d="M242 1228 c-16 -16 -15 -48 1 -48 9 0 9 -2 -1 -9 -8 -5 -12 -21 -10
-37 3 -28 5 -29 65 -32 l62 -3 4 58 3 58 2 -57 c2 -50 5 -58 22 -58 16 0 20 8
23 58 l3 57 2 -57 c2 -51 5 -58 22 -58 12 0 20 7 20 18 1 16 1 16 11 0 12 -21
49 -24 67 -6 17 17 15 43 -4 59 -14 11 -14 13 0 21 13 7 14 14 6 29 -13 24
-56 25 -69 2 -9 -16 -10 -16 -16 -2 -4 12 -21 16 -66 16 -52 0 -62 -2 -68 -20
-8 -20 -8 -20 -13 1 -7 25 -46 30 -66 10z m237 -60 c12 -15 11 -18 -3 -18 -10
0 -16 8 -16 22 0 12 1 19 3 17 1 -2 9 -12 16 -21z"/>
<path d="M701 1226 c-7 -8 -11 -37 -9 -68 3 -50 4 -53 33 -56 19 -3 33 2 42
14 11 16 13 16 19 1 4 -12 18 -17 45 -17 l39 0 0 70 c0 63 -2 70 -20 70 -16 0
-20 -8 -23 -57 l-3 -58 -2 58 c-2 44 -6 57 -17 57 -9 0 -18 -7 -21 -15 -5 -13
-8 -13 -21 0 -18 19 -47 19 -62 1z"/>
<path d="M1420 1170 l0 -70 45 0 c36 0 45 3 45 18 1 16 1 16 11 0 12 -21 49
-24 67 -6 7 7 12 33 12 58 0 25 -5 51 -12 58 -17 17 -55 15 -66 -4 -8 -14 -10
-14 -21 0 -8 9 -29 16 -47 16 l-34 0 0 -70z m137 -22 c-2 -13 -4 -3 -4 22 0
25 2 35 4 23 2 -13 2 -33 0 -45z"/>
<path d="M1610 1170 c0 -63 2 -70 20 -70 16 0 20 8 23 58 l3 57 2 -57 2 -58
40 0 41 0 -3 68 -3 67 -62 3 -63 3 0 -71z"/>
<path d="M1810 1221 c-14 -27 -13 -94 2 -109 28 -28 78 -4 78 37 0 18 -38 12
-43 -6 -3 -10 -5 2 -5 27 0 25 2 37 5 27 5 -19 34 -20 40 -1 5 16 -25 44 -47
44 -11 0 -24 -9 -30 -19z"/>
<path d="M2102 1173 l3 -68 43 -3 42 -3 0 70 c0 64 -2 71 -20 71 -16 0 -20 -8
-23 -57 l-3 -58 -2 58 c-2 50 -4 57 -22 57 -19 0 -21 -5 -18 -67z"/>
<path d="M2211 1226 c-7 -8 -11 -37 -9 -68 3 -47 6 -53 26 -56 28 -4 52 14 52
39 0 24 -27 25 -33 2 -3 -10 -5 -4 -6 14 -1 26 2 30 19 26 15 -4 20 0 20 14 0
39 -45 58 -69 29z"/>
<path d="M2302 1228 c-16 -16 -16 -48 1 -48 9 0 9 -2 -1 -9 -8 -5 -12 -21 -10
-37 3 -26 7 -29 41 -32 l38 -3 -3 68 c-3 64 -4 68 -28 71 -14 2 -31 -3 -38
-10z"/>
<path d="M2502 1228 c-13 -13 -16 -85 -6 -112 8 -22 60 -21 73 2 10 16 10 16
11 0 0 -15 9 -18 45 -18 l46 0 -3 68 -3 67 -35 2 c-21 1 -39 -4 -46 -13 -10
-13 -12 -13 -18 1 -6 18 -47 20 -64 3z m35 -80 c-2 -13 -4 -3 -4 22 0 25 2 35
4 23 2 -13 2 -33 0 -45z"/>
<path d="M2801 1226 c-7 -8 -11 -37 -9 -68 3 -52 4 -53 36 -56 26 -3 34 1 41
20 l8 23 7 -23 c6 -18 15 -22 47 -22 l39 0 0 70 c0 63 -2 70 -20 70 -16 0 -20
-8 -23 -57 l-3 -58 -2 58 c-2 50 -5 57 -22 57 -15 0 -20 -7 -21 -27 -1 -22 -2
-23 -6 -8 -9 35 -50 47 -72 21z"/>
<path d="M2980 1170 c0 -63 2 -70 20 -70 16 0 20 8 23 58 l3 57 2 -57 c2 -51
5 -58 22 -58 18 0 20 7 20 58 0 31 -4 62 -8 68 -4 6 -24 11 -44 12 l-38 1 0
-69z"/>
<path d="M3182 1228 c-15 -15 -16 -48 -1 -48 8 0 8 -4 -1 -14 -6 -8 -10 -25
-8 -38 2 -19 10 -23 46 -26 l42 -3 0 51 c0 28 -5 60 -10 71 -12 21 -50 25 -68
7z"/>
<path d="M3470 1170 c0 -63 2 -70 20 -70 16 0 20 8 23 58 l3 57 2 -57 c2 -51
5 -58 22 -58 18 0 20 7 20 54 0 77 -5 86 -51 86 l-39 0 0 -70z"/>
<path d="M0 836 l0 -225 83 -31 c45 -17 95 -36 110 -42 15 -6 32 -19 37 -29 6
-10 10 -91 10 -181 0 -191 6 -208 70 -208 22 0 50 5 64 11 20 10 38 9 82 -4
55 -16 59 -16 102 3 56 25 68 25 128 -1 47 -21 49 -21 100 -4 34 12 62 15 81
10 54 -14 157 -17 193 -5 29 10 46 9 93 -5 54 -16 58 -15 103 4 52 24 75 26
91 10 17 -17 368 -20 413 -4 30 11 42 10 71 -2 19 -8 49 -15 67 -15 66 0 97
65 47 98 -51 33 -53 84 -5 99 11 3 23 18 26 32 6 21 2 31 -17 46 -24 19 -41
19 -135 1 -28 -5 -33 -2 -52 30 -26 44 -40 45 -77 6 -22 -23 -36 -29 -52 -25
-13 3 -74 6 -137 7 -94 0 -119 -3 -145 -18 -27 -16 -35 -17 -64 -5 -52 22
-103 25 -138 7 -41 -20 -62 -20 -102 0 -38 20 -120 21 -167 1 -30 -13 -40 -13
-69 -1 -47 20 -93 17 -144 -7 l-44 -22 -56 27 c-54 27 -56 27 -91 11 -20 -10
-36 -20 -36 -24 0 -3 -11 -19 -24 -36 -24 -30 -24 -30 -45 -11 -32 29 -27 75
13 122 l34 40 144 12 c239 21 366 60 515 158 138 91 255 244 278 362 l7 32
-370 0 c-323 0 -371 -2 -383 -16 -43 -52 -139 -57 -188 -10 l-27 26 -197 0
-197 0 0 -224z m610 -536 c24 -24 24 -29 4 -58 -18 -26 -75 -30 -94 -7 -17 21
-4 64 23 75 34 13 45 12 67 -10z m-206 -26 c10 -25 7 -82 -4 -89 -18 -11 -50
6 -56 31 -11 45 44 99 60 58z"/>
<path d="M1700 845 c0 -218 6 -257 39 -270 26 -10 1207 -6 1234 4 13 5 27 17
31 26 3 9 6 115 6 236 l0 219 -655 0 -655 0 0 -215z"/>
<path d="M3252 834 c4 -285 -13 -264 204 -264 l154 0 0 245 0 245 -181 0 -180
0 3 -226z"/>
<path d="M2146 475 c-21 -22 -29 -88 -25 -213 5 -140 10 -147 99 -138 36 3 91
1 122 -5 48 -10 65 -9 113 6 54 18 59 18 106 0 55 -19 110 -16 161 11 27 14
33 14 81 -6 l52 -22 52 21 52 21 55 -21 c48 -19 59 -20 103 -9 53 14 82 14
191 4 59 -5 81 -3 112 11 38 17 41 17 90 -4 31 -13 59 -19 75 -15 l25 6 0 144
0 144 -35 0 c-19 0 -50 -7 -69 -16 -43 -21 -62 -14 -83 30 -19 41 -36 50 -66
34 -12 -6 -41 -10 -66 -9 -34 1 -52 -5 -79 -25 -33 -26 -37 -26 -85 -15 -47
11 -55 10 -102 -14 -63 -30 -66 -30 -107 -5 -40 24 -75 25 -127 4 -35 -14 -42
-14 -76 0 -24 10 -68 16 -120 16 -78 0 -83 1 -108 30 -33 36 -44 37 -86 6 -18
-13 -44 -29 -59 -35 -15 -7 -37 -27 -50 -46 -42 -65 -78 -37 -67 51 5 43 3 59
-7 65 -21 13 -55 10 -72 -6z m832 -167 c32 -32 -2 -88 -54 -88 -52 0 -79 37
-51 72 22 28 83 38 105 16z m-694 -50 c19 -53 -27 -101 -62 -66 -17 17 -15 49
4 76 20 29 46 25 58 -10z"/>
<path d="M0 237 c0 -173 5 -186 56 -153 33 22 40 42 53 164 14 128 9 139 -59
144 l-50 3 0 -158z"/>
</g>
</svg>
